<?xml version="1.0" encoding="utf-8"?>
<!-- Generator: Adobe Illustrator 22.1.0, SVG Export Plug-In . SVG Version: 6.00 Build 0)  -->
<svg version="1.1" id="Livello_1" xmlns="http://www.w3.org/2000/svg" xmlns:xlink="http://www.w3.org/1999/xlink" x="0px" y="0px"
	 viewBox="0 0 485.6 323.7" style="enable-background:new 0 0 485.6 323.7;" xml:space="preserve">
<style type="text/css">
	.st0{fill:#9E6D15;}
</style>
<g>
	<path d="M375.2,289.7l12.7,22c46.7-19.1,82.5-59.5,95.4-109.1h-26.1C444.7,242.7,414.2,274.9,375.2,289.7z"/>
	<path d="M459.9,131.1h25.7C471.2,56.4,405.5,0,326.7,0c-37.3,0-71.7,12.6-99.1,33.9l12.7,22c23.6-19.2,53.6-30.8,86.4-30.8
		C391.5,25.2,445.9,70.4,459.9,131.1z"/>
</g>
<g>
	<polygon class="st0" points="186.9,0.1 0,323.7 263.8,323.7 249.7,299.3 41.9,300.6 186.8,47.9 248.4,154.8 324.1,285.9 
		345.9,323.7 346.5,323.7 373.7,323.7 	"/>
</g>
</svg>
